# xmcd
#
# Track frame offsets:
#	150
#	17394
#	29839
#	39811
#	49399
#	66984
#	82591
#	93846
#	105106
#	117711
#	136386
#	154816
#	166126
#	187919
#	197074
#	206617
#
# Disc length: 2890 seconds
#
# Revision: 3
# Processed by: cddbd v1.5.2PL0 Copyright (c) Steve Scherf et al.
# Submitted via: audiograbber 1.83.01
#
DISCID=c80b4810
DTITLE=The Blues Project - The Blues Project
DYEAR=1964
DGENRE=Blues
TTITLE0=Fixin' To Die
TTITLE1=Blow Whistle Blow
TTITLE2=My Little Woman
TTITLE3=Ginger Man
TTITLE4=Bad Dream Blues
TTITLE5=Winding Boy
TTITLE6=I'm Troubled
TTITLE7=France Blues
TTITLE8=Don't You Leave Me Here
TTITLE9=Devil Got My Woman
TTITLE10=Southbound Train
TTITLE11=Downtown Blues
TTITLE12=Leavin' Here Blues
TTITLE13=Hello Baby Blues
TTITLE14=She's Gone
TTITLE15=Slappin' On My Black Cat Bone
EXTD=MARO\n
EXTT0=
EXTT1=
EXTT2=
EXTT3=
EXTT4=
EXTT5=
EXTT6=
EXTT7=
EXTT8=
EXTT9=
EXTT10=
EXTT11=
EXTT12=
EXTT13=
EXTT14=
EXTT15=
PLAYORDER=
